<svg id="Raggruppa_1" data-name="Raggruppa 1" xmlns="http://www.w3.org/2000/svg" xmlns:xlink="http://www.w3.org/1999/xlink" width="299.197" height="50.063" viewBox="0 0 299.197 50.063">
  <defs>
    <clipPath id="clip-path">
      <rect id="Rettangolo_27" data-name="Rettangolo 27" width="299.197" height="50.063" fill="none"/>
    </clipPath>
  </defs>
  <g id="Raggruppa_19" data-name="Raggruppa 19" clip-path="url(#clip-path)">
    <path id="Tracciato_50" data-name="Tracciato 50" d="M14.006,44.335a23.5,23.5,0,0,0,5.2-4.269,41.117,41.117,0,0,0,4.361-5.7l1.99-3.15a2.032,2.032,0,0,1-.815-1.945l.115-.748a2.02,2.02,0,0,1,2-1.714h1.377q1.393-2.138,2.842-4.317a44.617,44.617,0,0,1,4.042-5.2,30.336,30.336,0,0,1,5-4.425,18.039,18.039,0,0,1,2.15-1.287A24.732,24.732,0,0,0,6.8,46.065a5.858,5.858,0,0,1,1.4-.147,10.942,10.942,0,0,0,5.8-1.583" transform="translate(0 -3.738)" fill="#004f87"/>
    <path id="Tracciato_51" data-name="Tracciato 51" d="M123.694,87.266a19.594,19.594,0,0,0-1.625,1.231,22.864,22.864,0,0,0-3.569,3.956,41.45,41.45,0,0,0-2.8,4.54q-.331.622-.678,1.226c.5-.062.973-.139,1.407-.225a2.85,2.85,0,0,1,.468-.048,2.1,2.1,0,0,1,2.075,1.945c.111,2.116-2.983,3.015-3.4,3.06l-1.748.187q-.89.1-1.661.164c-.058,0-.116.008-.174.014-1.246,2.034-2.594,4.085-4.012,6.109a41.373,41.373,0,0,1-5.6,6.446,27.352,27.352,0,0,1-7.082,4.782,19.582,19.582,0,0,1-4.9,1.509,24.724,24.724,0,0,0,33.3-34.9" transform="translate(-78.345 -75.636)" fill="#76787b"/>
    <path id="Tracciato_52" data-name="Tracciato 52" d="M509.427.712h4.908V50.287h-4.908Zm-28.2,49.575V10.635c0-6.543,3.754-9.861,11.159-9.861h11.693V4.813l-11.088,0c-1.7,0-6.858,0-6.858,6.252v3.881a1.227,1.227,0,0,0,1.228,1.226h7.434v4.042h-7.434a1.227,1.227,0,0,0-1.228,1.227V50.287Z" transform="translate(-417.092 -0.617)" fill="#004f87"/>
    <path id="Tracciato_53" data-name="Tracciato 53" d="M796.428,90.963c-9.812,0-14.189-4.67-14.189-15.143V47.6h4.905V76.686c0,6.216,4.052,10.235,10.324,10.235,8.932,0,14.48-5.846,14.48-15.257V47.6h4.907V90.745h-4.473v-6.7a1.23,1.23,0,0,0-1.229-1.23h-.173a1.226,1.226,0,0,0-1.069.627c-2.807,4.986-7.343,7.516-13.484,7.516" transform="translate(-677.992 -41.256)" fill="#004f87"/>
    <path id="Tracciato_54" data-name="Tracciato 54" d="M1097.239,84.2c-7.3,0-19.638-2.907-20.254-22.373,0-12.747,8.336-22.031,19.82-22.031a17.034,17.034,0,0,1,12.816,5.093c3.991,4.152,6.29,10.85,6.252,18.089h-32.32a1.231,1.231,0,0,0-1.229,1.185,15.894,15.894,0,0,0,4.07,11.755c2.682,2.772,6.524,4.239,11.1,4.239,6.5,0,10.922-3.094,12.559-8.747h4.776c-2.216,8.261-8.413,12.789-17.594,12.789m-.867-40.365c-8.978,0-13.523,6.922-14.043,13.781a1.229,1.229,0,0,0,1.225,1.321h25.726a1.224,1.224,0,0,0,1.224-1.289,14.151,14.151,0,0,0-14.132-13.814" transform="translate(-933.458 -34.492)" fill="#004f87"/>
    <path id="Tracciato_55" data-name="Tracciato 55" d="M1435.175,90.692V61.6c0-6.218-4.052-10.237-10.322-10.237-8.934,0-14.481,5.85-14.481,15.263V90.692h-4.907V48.369h4.474v5.874a1.229,1.229,0,0,0,1.228,1.229h.173a1.228,1.228,0,0,0,1.07-.629c2.806-4.986,7.342-7.514,13.482-7.514,9.813,0,14.189,4.67,14.189,15.142v28.22Z" transform="translate(-1218.161 -41.022)" fill="#004f87"/>
    <path id="Tracciato_56" data-name="Tracciato 56" d="M1709.4,50.287c-7.187,0-9.424-1.179-9.424-8.557v-28.5A1.228,1.228,0,0,0,1698.743,12h-6.4V7.964h6.4a1.229,1.229,0,0,0,1.228-1.228V.712h4.906V6.736a1.229,1.229,0,0,0,1.228,1.228h7.691V12h-7.691a1.228,1.228,0,0,0-1.228,1.227v27.8c0,4.488,2,5.211,6.768,5.211h2.152v4.041Z" transform="translate(-1466.811 -0.617)" fill="#004f87"/>
    <path id="Tracciato_57" data-name="Tracciato 57" d="M1903.808,49.67h4.906V7.208h-4.906Zm0-45.556h4.906V0h-4.906Z" transform="translate(-1650.092)" fill="#004f87"/>
    <path id="Tracciato_58" data-name="Tracciato 58" d="M1996.509,83.128c-6.191,0-16.492-1.688-17.652-12.7h4.923c.781,5.521,5.506,8.66,13.159,8.66,7.775,0,12.055-2.805,12.055-7.9,0-6.158-6.857-7.631-13.489-9.057-.7-.147-1.4-.3-2.108-.457-8.442-1.91-13.677-4.494-13.677-11.447,0-9.083,12.027-11.506,15.49-11.506,10.636,0,16.083,3.687,17.023,11.575h-4.961c-.96-4.744-5.153-7.538-11.455-7.538-6.836,0-10.758,2.533-10.758,6.946,0,5.536,6.462,6.963,12.716,8.339.958.21,1.919.427,2.864.652,8.464,1.892,13.7,4.477,13.7,11.537,0,11.963-13.646,12.892-17.827,12.892" transform="translate(-1715.139 -33.564)" fill="#004f87"/>
  </g>
</svg>
